<?xml version="1.0" standalone="no"?>
<!DOCTYPE svg PUBLIC "-//W3C//DTD SVG 20010904//EN"
 "http://www.w3.org/TR/2001/REC-SVG-20010904/DTD/svg10.dtd">
<svg version="1.0" xmlns="http://www.w3.org/2000/svg"
 width="2240.000000pt" height="1856.000000pt" viewBox="0 0 2240.000000 1856.000000"
 preserveAspectRatio="xMidYMid meet">

<g transform="translate(0.000000,1856.000000) scale(0.100000,-0.100000)"
fill="#000000" stroke="none">
<path d="M10548 16273 c-1 -5 -113 -63 -248 -130 -238 -119 -553 -250 -715
-298 -44 -13 -118 -37 -165 -53 -225 -77 -528 -140 -985 -203 -95 -14 -698
-17 -838 -5 -190 17 -481 34 -493 29 -12 -4 -14 -221 -14 -1292 -1 -1392 -5
-1768 -22 -1875 -7 -50 -25 -98 -62 -170 -82 -159 -127 -240 -143 -256 -32
-34 -34 7 -29 485 3 259 9 1074 12 1813 4 739 10 1358 13 1375 l7 32 62 -3
c60 -4 154 1 717 34 274 16 732 51 825 62 118 15 16 26 -350 38 -362 13 -546
26 -680 49 -14 2 -88 7 -165 10 -172 7 -304 14 -411 21 -58 4 -84 2 -89 -6
-10 -16 -23 -197 -30 -415 -3 -99 -10 -243 -16 -320 -21 -306 -39 -543 -44
-595 -2 -30 -7 -102 -10 -160 -11 -224 -26 -467 -30 -500 -2 -19 -6 -89 -10
-155 -3 -66 -10 -174 -15 -240 -5 -66 -12 -169 -15 -230 -3 -60 -7 -144 -10
-185 -3 -41 -7 -120 -10 -175 -3 -55 -7 -122 -10 -150 -2 -27 -7 -88 -10 -135
-6 -90 -13 -155 -20 -205 -3 -16 -7 -48 -10 -70 -4 -22 -8 -51 -10 -65 -3 -13
-7 -87 -10 -165 -5 -116 -11 -181 -20 -215 0 -3 -5 -41 -9 -85 -4 -44 -12
-102 -17 -130 -5 -27 -16 -113 -24 -190 -8 -78 -17 -148 -20 -156 -14 -38 -35
-39 -864 -39 -655 0 -811 -2 -819 -13 -6 -7 -25 -114 -41 -238 -17 -123 -50
-345 -75 -494 -24 -148 -48 -295 -51 -325 -4 -30 -18 -107 -31 -170 -30 -144
-71 -382 -89 -520 -8 -58 -19 -142 -26 -187 -7 -45 -9 -86 -5 -90 4 -4 536 -9
1182 -10 647 0 1190 -4 1209 -7 18 -4 36 -13 39 -22 3 -8 3 -108 -1 -222 -8
-263 -1 -295 82 -367 81 -69 210 -161 285 -202 36 -20 88 -51 115 -68 50 -32
107 -65 260 -147 44 -23 93 -54 110 -68 33 -29 75 -54 210 -125 112 -59 186
-105 202 -125 9 -11 12 -83 12 -255 1 -132 4 -253 9 -270 l9 -30 89 1 c49 0
148 6 219 13 211 20 398 25 449 12 25 -6 124 -49 219 -95 264 -128 462 -214
545 -238 18 -5 66 -24 105 -42 40 -19 92 -41 117 -49 118 -40 213 -79 295
-120 136 -68 238 -93 284 -68 15 8 38 11 65 7 112 -17 124 -18 154 -2 44 23
104 21 122 -4 8 -11 25 -20 38 -20 58 0 223 59 437 155 17 7 53 22 80 33 28
11 82 36 120 55 39 19 122 53 185 75 149 51 343 134 550 232 91 43 184 82 207
85 54 8 385 -11 518 -30 157 -23 215 -24 225 -6 14 28 20 121 19 311 -1 241
-1 230 16 257 9 13 49 42 91 66 41 23 146 85 232 138 86 52 217 129 291 170
196 109 326 187 438 265 34 24 77 50 95 57 53 23 76 52 84 104 7 46 1 244 -12
430 l-7 92 26 10 c17 7 383 11 1012 12 541 2 990 6 997 10 7 5 22 61 34 126
11 65 37 199 57 298 54 274 115 649 121 750 4 67 9 757 6 854 0 12 -133 13
-870 9 -930 -5 -924 -5 -934 44 -3 13 -7 68 -10 123 -4 55 -13 138 -21 184 -8
46 -18 120 -21 165 -3 44 -9 110 -15 146 -5 36 -14 124 -19 195 -17 209 -43
428 -61 507 -6 26 -12 83 -14 125 -3 85 -22 202 -35 218 -13 16 -10 74 7 133
17 56 15 182 -6 467 -5 72 -12 173 -16 225 -3 52 -10 122 -15 155 -8 56 -13
137 -25 395 -13 297 -17 357 -20 375 -3 11 -7 43 -9 70 -3 28 -8 73 -11 100
-2 28 -7 73 -10 100 -2 28 -7 59 -9 70 -2 12 -7 122 -11 245 -7 260 -29 501
-47 530 -12 19 -20 20 -158 15 -80 -3 -179 -8 -220 -10 -41 -3 -122 -8 -180
-11 -58 -3 -139 -10 -180 -15 -284 -35 -348 -39 -690 -45 -168 -3 -309 -9
-313 -13 -10 -10 185 -38 353 -51 398 -30 722 -51 945 -62 294 -14 280 -14
327 -4 34 7 39 6 47 -17 6 -15 10 -374 11 -914 1 -488 3 -1000 5 -1138 8 -513
14 -1583 8 -1604 -3 -12 -10 -20 -16 -18 -16 5 -112 165 -159 265 -47 99 -52
138 -68 547 -14 342 -19 758 -24 1845 -3 459 -7 850 -10 869 -3 19 -10 39 -15
44 -12 12 -130 10 -491 -7 -451 -21 -685 -12 -1085 45 -115 16 -228 32 -250
35 -45 6 -164 36 -210 53 -16 6 -100 31 -185 56 -85 24 -186 55 -225 69 -295
101 -533 195 -672 264 -43 21 -125 62 -183 91 -58 28 -113 56 -122 61 -21 12
-185 14 -190 3z m47 -1227 c26 -19 34 -215 10 -240 -24 -23 -186 -23 -210 1
-25 25 -18 219 8 238 25 18 168 19 192 1z m305 -6 c17 -17 20 -33 20 -113 0
-133 -4 -137 -130 -137 -81 0 -101 3 -108 16 -5 9 -7 64 -5 123 4 82 8 109 21
119 10 7 48 12 99 12 70 0 86 -3 103 -20z m-293 -321 c13 -11 15 -31 11 -116
-3 -62 -10 -108 -18 -117 -9 -12 -33 -16 -101 -16 -118 0 -119 1 -119 141 0
104 1 110 23 119 31 13 184 5 204 -11z m303 -4 c18 -21 8 -224 -11 -236 -17
-11 -206 -12 -212 -1 -3 4 -8 53 -11 109 -10 144 -11 143 118 143 81 0 106 -3
116 -15z m-142 -800 c52 -77 158 -230 236 -340 79 -110 197 -281 263 -380 66
-99 149 -219 184 -267 35 -47 109 -152 164 -233 55 -81 110 -159 121 -174 12
-14 92 -132 179 -261 87 -129 181 -266 210 -305 175 -236 337 -484 333 -510
-3 -18 -12 -20 -89 -23 -77 -2 -88 -1 -110 20 -36 34 -151 190 -284 388 -65
96 -133 193 -151 215 -17 22 -71 99 -119 170 -94 139 -135 197 -285 400 -53
72 -132 181 -176 243 -43 62 -114 159 -157 215 -43 56 -124 165 -180 242 -56
77 -124 164 -151 193 -47 50 -51 52 -101 52 -48 0 -55 -3 -91 -42 -70 -76
-129 -150 -244 -303 -61 -82 -118 -159 -127 -169 -30 -37 -211 -282 -251 -341
-23 -33 -73 -103 -112 -155 -123 -166 -243 -333 -340 -475 -38 -55 -100 -143
-139 -195 -38 -52 -113 -159 -167 -237 -129 -189 -151 -213 -200 -214 -22 -1
-55 -3 -74 -4 -54 -3 -80 5 -80 25 0 20 108 184 270 410 53 74 130 185 170
245 40 61 117 171 170 245 53 74 138 196 190 270 52 74 124 176 160 225 37 50
125 176 196 280 70 105 153 224 184 266 30 42 76 105 101 140 26 35 84 120
131 189 215 319 232 341 253 338 13 -2 51 -49 113 -143z m-3096 -412 c13 -16
85 -108 159 -206 74 -98 156 -206 182 -240 26 -34 82 -110 123 -170 42 -59
110 -152 153 -207 43 -55 99 -130 125 -167 27 -37 100 -140 163 -228 202 -282
263 -381 263 -425 0 -83 -47 -119 -87 -66 -10 14 -39 53 -65 88 -175 233 -457
619 -533 728 -32 47 -102 144 -155 215 -53 72 -122 169 -154 218 -32 48 -78
109 -101 135 -40 44 -45 46 -60 31 -9 -9 -34 -68 -55 -130 -21 -63 -57 -161
-80 -219 -23 -58 -53 -136 -67 -175 -13 -38 -49 -133 -79 -210 -122 -318 -230
-624 -294 -835 -52 -173 -72 -224 -93 -242 -17 -16 -44 -18 -243 -18 -188 0
-226 2 -230 15 -5 12 37 71 92 131 6 7 37 49 70 94 32 45 83 114 112 153 63
85 175 308 367 732 71 156 298 699 360 860 68 177 79 189 127 138z m6040 -43
c15 -30 52 -118 82 -195 66 -170 178 -442 210 -510 13 -27 27 -61 31 -75 4
-14 28 -68 52 -120 25 -52 54 -117 65 -145 20 -50 77 -171 193 -410 68 -139
215 -367 327 -505 38 -47 67 -92 66 -100 -3 -13 -37 -15 -235 -15 -202 0 -234
2 -249 16 -9 9 -44 115 -79 235 -35 121 -82 273 -105 339 -23 66 -62 183 -87
260 -59 182 -121 356 -184 514 -28 69 -72 189 -98 266 -63 183 -77 215 -95
215 -21 0 -113 -107 -197 -230 -60 -87 -241 -334 -286 -390 -7 -8 -47 -63 -90
-122 -43 -58 -134 -181 -203 -273 -69 -92 -171 -230 -227 -306 -57 -77 -109
-139 -117 -139 -20 0 -36 24 -43 64 -7 43 20 97 110 224 34 48 81 114 104 147
24 33 71 101 105 150 62 91 197 276 208 285 13 11 129 169 180 245 30 44 115
157 190 250 74 94 151 190 170 215 74 97 144 171 159 168 9 -2 28 -28 43 -58z
m-3104 -1052 c2 -187 0 -218 -14 -232 -13 -13 -41 -16 -153 -16 -93 0 -141 4
-149 12 -8 8 -12 48 -12 112 0 116 18 167 86 245 48 56 143 103 199 99 l40 -3
3 -217z m178 205 c64 -21 113 -52 152 -97 64 -74 77 -123 73 -278 -2 -73 -11
-78 -162 -78 -72 0 -139 5 -150 10 -18 10 -19 23 -19 230 0 165 3 220 13 223
22 9 43 7 93 -10z m-3015 -313 c17 -10 19 -23 19 -160 0 -82 -4 -151 -9 -155
-5 -3 -51 -6 -102 -6 -111 -1 -119 5 -119 95 0 105 54 192 137 221 47 17 50
17 74 5z m5649 -9 c5 -11 10 -78 10 -150 0 -162 1 -161 -119 -161 -54 0 -91 4
-99 12 -7 7 -12 43 -12 93 0 72 3 86 29 127 20 32 44 53 82 72 63 31 95 33
109 7z m-5436 -15 c14 -8 37 -32 53 -52 25 -34 28 -47 31 -129 3 -71 1 -94
-11 -103 -16 -14 -176 -20 -196 -8 -16 10 -15 288 2 305 16 16 88 9 121 -13z
m5632 5 c18 -11 44 -36 60 -56 25 -33 28 -47 32 -128 4 -79 2 -92 -14 -104
-26 -19 -177 -18 -194 2 -12 14 -16 278 -4 297 10 15 89 8 120 -11z m-3025
-201 c18 -10 19 -23 19 -205 0 -144 -3 -196 -12 -202 -20 -13 -259 -16 -290
-4 l-28 11 0 189 c0 159 3 192 16 205 12 13 41 16 145 16 72 0 139 -5 150 -10z
m384 1 l30 -6 9 -188 c11 -241 20 -227 -155 -227 -70 0 -139 4 -153 10 l-26
10 0 194 c0 175 2 196 18 205 18 11 228 13 277 2z m2726 -172 c5 -8 9 -67 9
-131 0 -147 -1 -148 -115 -148 -108 0 -111 5 -114 147 -2 118 6 140 52 145 72
7 160 0 168 -13z m-5917 -5 c3 -9 6 -71 6 -139 0 -147 2 -145 -114 -145 -111
0 -116 7 -116 160 0 103 2 120 18 129 9 6 58 11 108 11 75 0 93 -3 98 -16z
m274 4 c8 -8 12 -53 12 -134 0 -152 -1 -154 -106 -154 -115 0 -114 -1 -114
141 0 66 5 129 10 140 9 17 22 19 98 19 55 0 92 -4 100 -12z m5360 0 c8 -8 12
-51 12 -129 0 -148 -1 -149 -115 -149 -46 0 -90 3 -99 6 -13 5 -16 27 -16 133
0 85 4 131 12 139 8 8 46 12 103 12 57 0 95 -4 103 -12z m-7785 -967 c105 -29
212 -115 200 -161 -5 -20 -79 -87 -120 -109 -25 -13 -67 2 -92 33 -35 42 -163
51 -232 15 -87 -44 -129 -121 -129 -238 0 -118 46 -172 153 -179 53 -3 72 0
115 22 28 14 53 30 57 36 3 5 20 10 36 10 38 0 129 -81 129 -116 0 -45 -140
-140 -241 -163 -102 -24 -240 -3 -323 48 -163 101 -222 349 -130 541 58 122
187 231 313 266 69 19 186 17 264 -5z m1046 5 c142 -38 245 -161 269 -318 48
-317 -236 -587 -567 -540 -188 27 -294 130 -322 313 -37 235 103 461 334 540
65 22 211 24 286 5z m2263 -16 c32 -13 75 -37 95 -55 l38 -33 -18 -34 c-10
-19 -35 -53 -56 -76 -42 -45 -46 -46 -136 -8 -69 30 -150 39 -185 21 -35 -18
-40 -53 -11 -79 10 -9 53 -30 95 -46 210 -81 246 -117 246 -245 0 -108 -60
-199 -166 -251 -56 -27 -66 -29 -184 -29 -141 1 -194 13 -296 70 -71 40 -77
55 -42 101 71 95 105 111 156 76 77 -53 204 -75 262 -45 72 37 42 84 -78 124
-120 39 -177 75 -222 139 -22 30 -25 45 -25 115 1 85 12 116 60 173 31 37 117
88 171 101 67 17 231 7 296 -19z m2711 21 c34 -13 34 -27 3 -185 -50 -250 -60
-339 -46 -391 14 -51 39 -73 93 -82 75 -12 154 44 177 124 13 47 55 279 71
393 12 89 31 139 52 141 6 0 41 3 78 5 86 7 119 -6 119 -45 0 -42 -55 -366
-81 -476 -26 -112 -69 -194 -128 -247 -91 -80 -202 -111 -347 -96 -89 9 -151
35 -199 84 -96 96 -104 212 -37 544 32 157 46 209 61 221 23 19 143 25 184 10z
m3339 -12 c69 -23 105 -45 161 -98 44 -41 46 -63 11 -94 -15 -12 -43 -37 -63
-54 -46 -42 -73 -41 -126 2 -55 46 -134 64 -194 47 -106 -32 -174 -127 -179
-252 -3 -86 11 -118 74 -166 32 -25 46 -29 100 -28 54 0 71 5 122 37 33 20 70
37 82 37 28 0 120 -89 120 -117 0 -27 -30 -56 -100 -97 -108 -64 -186 -80
-304 -64 -179 24 -278 108 -321 275 -62 236 82 489 323 569 91 31 209 32 294
3z m744 6 c29 -6 34 -23 23 -81 -34 -174 -39 -218 -29 -228 17 -17 241 -21
263 -4 19 14 38 93 52 216 10 85 25 102 102 109 78 7 130 -3 143 -27 8 -15 1
-72 -29 -227 -22 -115 -51 -273 -66 -353 -35 -199 -41 -223 -61 -237 -12 -8
-51 -13 -110 -13 -84 0 -93 2 -99 20 -4 11 6 79 21 150 22 106 25 132 14 145
-10 12 -38 15 -141 15 -150 0 -153 -2 -162 -105 -3 -33 -13 -92 -22 -131 -19
-86 -31 -94 -145 -94 -116 0 -112 -25 -46 325 33 172 65 352 76 425 12 77 18
89 54 98 30 8 117 6 162 -3z m-8190 -30 c18 -19 47 -65 64 -102 33 -72 134
-246 159 -276 9 -11 18 -14 24 -8 5 5 26 95 47 200 21 106 44 198 50 206 16
19 180 21 198 3 14 -14 16 -57 2 -92 -5 -14 -28 -139 -50 -278 -56 -345 -76
-440 -97 -455 -20 -15 -140 -17 -176 -4 -19 8 -45 50 -112 183 -102 202 -131
246 -150 226 -12 -13 -33 -119 -56 -288 -18 -127 -20 -130 -133 -130 -123 0
-125 2 -103 123 10 51 40 227 68 392 34 199 56 306 66 318 13 13 32 17 91 17
72 0 76 -1 108 -35z m2553 18 c21 -18 21 -20 7 -93 -9 -47 -21 -79 -32 -87
-12 -8 -51 -13 -113 -13 -53 0 -102 -4 -109 -8 -14 -9 -57 -210 -91 -422 -28
-176 -28 -176 -47 -194 -22 -22 -186 -23 -204 -1 -17 20 -11 56 66 464 14 73
23 139 20 147 -4 11 -27 14 -95 14 -49 0 -102 5 -117 10 -26 10 -27 11 -20 78
8 75 25 108 58 115 13 2 165 5 339 6 288 1 319 -1 338 -16z m832 -9 c54 -25
115 -77 135 -116 37 -72 35 -198 -6 -277 -20 -41 -83 -101 -128 -125 -57 -29
-56 -34 5 -155 71 -140 70 -145 -47 -149 -119 -4 -136 5 -177 97 -56 128 -67
144 -96 154 -49 16 -71 -9 -86 -95 -26 -151 -32 -158 -138 -158 -87 0 -113 12
-113 50 0 29 50 314 85 485 8 39 21 117 30 175 20 150 7 143 275 138 191 -3
220 -6 261 -24z m2254 10 c9 -9 13 -24 10 -34 -3 -10 -10 -44 -15 -77 -6 -34
-17 -63 -27 -70 -11 -8 -51 -13 -111 -13 -51 0 -102 -5 -112 -10 -11 -6 -22
-26 -25 -48 -4 -20 -13 -69 -21 -108 -7 -39 -27 -151 -43 -249 -17 -97 -37
-188 -46 -201 -15 -24 -20 -25 -113 -22 l-97 3 -3 35 c-2 28 66 434 94 562 7
33 -2 36 -128 40 -52 2 -92 8 -99 15 -10 10 -10 29 -2 84 18 117 -8 109 384
109 297 0 340 -2 354 -16z m918 9 c41 -8 48 -31 34 -109 -17 -95 -17 -95 -249
-92 -126 1 -191 -1 -199 -9 -17 -17 -29 -84 -18 -105 9 -16 26 -18 177 -18 92
0 173 -4 181 -9 11 -7 12 -22 8 -64 -9 -73 -15 -87 -44 -98 -13 -5 -98 -9
-187 -9 -122 0 -166 -3 -174 -13 -6 -7 -12 -37 -14 -67 l-3 -55 202 -5 c143
-4 206 -9 215 -18 10 -10 10 -21 0 -57 -7 -25 -12 -54 -12 -65 0 -10 -10 -26
-22 -34 -19 -14 -66 -16 -314 -16 -161 0 -299 3 -308 6 -22 8 -20 44 9 209 34
190 95 560 95 574 0 7 11 23 25 37 l25 25 272 -1 c150 -1 286 -4 301 -7z m207
-1662 c24 -7 25 -10 28 -99 3 -102 2 -106 -64 -141 -49 -26 -52 -28 -199 -126
-105 -70 -281 -175 -292 -175 -3 0 -23 -13 -46 -28 -23 -16 -85 -53 -137 -82
-52 -30 -97 -57 -100 -61 -9 -12 -174 -116 -225 -142 -62 -31 -82 -23 -91 34
-9 52 -27 59 -149 59 -147 0 -139 20 45 124 58 33 168 95 245 139 77 45 192
109 255 143 106 57 142 85 129 99 -4 3 -5715 8 -6127 5 -21 0 4 -37 30 -46 13
-4 41 -19 63 -34 22 -15 109 -64 194 -109 84 -45 183 -100 218 -122 36 -21 66
-39 68 -39 1 0 47 -25 101 -56 102 -57 143 -88 131 -100 -4 -4 -53 -9 -109
-12 -105 -4 -143 -18 -132 -47 9 -22 -15 -55 -39 -55 -12 0 -67 25 -122 56
-55 31 -113 63 -130 72 -16 8 -32 18 -35 22 -3 4 -27 19 -55 35 -27 15 -61 35
-75 45 -45 32 -291 180 -299 180 -5 0 -93 54 -197 121 -104 67 -201 127 -215
135 -33 16 -49 60 -49 129 0 58 9 71 55 78 51 7 7298 5 7325 -2z m-4476 -1018
c34 -9 67 -20 74 -26 19 -15 14 -68 -10 -94 -25 -26 -54 -29 -120 -9 -40 13
-48 13 -58 1 -10 -12 4 -22 78 -56 76 -34 93 -47 112 -81 27 -47 24 -114 -7
-157 -51 -70 -179 -92 -284 -49 -30 12 -62 30 -71 41 -16 18 -17 18 -33 -13
-9 -17 -27 -35 -41 -40 -14 -6 -90 -8 -170 -7 -128 3 -146 6 -159 23 -11 15
-14 61 -15 231 l0 213 24 15 c21 14 51 16 180 13 85 -2 157 -6 160 -9 14 -14
16 -65 3 -83 -12 -16 -30 -20 -103 -24 -94 -5 -124 -14 -124 -37 0 -26 15 -30
143 -36 54 -3 65 -12 71 -58 5 -43 -19 -55 -124 -61 -65 -4 -85 -9 -87 -20 -6
-32 12 -39 102 -41 68 -1 98 -5 123 -20 l33 -19 8 23 c20 51 65 65 125 37 54
-24 106 -27 106 -5 0 15 -14 23 -115 63 -68 27 -88 57 -93 136 -4 63 -4 64 35
103 62 62 130 76 237 46z m1024 -5 c16 -8 22 -20 22 -43 0 -50 -20 -59 -139
-65 -100 -5 -106 -6 -109 -27 -4 -31 23 -41 93 -37 96 6 133 -18 113 -76 -13
-35 -25 -40 -95 -40 -68 0 -113 -13 -113 -32 1 -33 19 -41 100 -45 45 -2 92
-8 104 -13 28 -10 38 -41 22 -72 -11 -22 -19 -24 -143 -32 -155 -10 -199 -5
-209 27 -8 25 -6 412 2 440 3 10 14 21 24 25 30 11 303 3 328 -10z m-1944 1
c47 -13 128 -91 150 -144 22 -51 20 -150 -3 -200 -41 -91 -127 -134 -281 -142
-157 -7 -150 -19 -150 247 0 150 4 216 12 230 12 18 24 20 123 20 60 0 127 -5
149 -11z m1386 -12 c44 -19 91 -69 120 -125 32 -61 26 -172 -12 -230 -41 -61
-86 -91 -167 -107 -84 -18 -218 -12 -240 10 -11 11 -15 57 -16 207 -2 106 -4
198 -5 203 -5 20 0 34 17 51 15 14 33 16 142 11 82 -3 138 -10 161 -20z m1087
7 c51 -25 87 -77 89 -132 2 -50 -18 -94 -76 -164 -19 -23 -35 -47 -35 -52 0
-6 26 -12 57 -14 64 -3 82 -20 76 -70 -5 -43 -37 -52 -185 -52 -149 0 -178 7
-187 45 -9 34 7 58 88 138 91 91 120 132 112 162 -8 30 -40 34 -69 8 -22 -21
-88 -23 -111 -4 -29 24 -20 66 22 98 20 16 48 34 62 40 37 17 117 15 157 -3z
m455 -13 c28 -18 57 -48 75 -78 26 -44 28 -56 27 -143 0 -81 -4 -101 -24 -135
-35 -60 -61 -86 -105 -106 -162 -75 -323 109 -271 308 25 94 68 154 126 176 8
3 40 6 71 6 45 1 64 -5 101 -28z m409 4 c56 -30 87 -102 69 -164 -10 -36 -49
-98 -88 -141 -12 -14 -21 -29 -19 -35 2 -5 27 -12 55 -15 28 -3 56 -10 61 -15
20 -22 21 -53 2 -76 -19 -23 -24 -24 -158 -25 -161 0 -169 1 -190 32 -14 22
-13 27 11 68 15 25 49 65 76 88 78 67 118 134 96 163 -11 16 -15 16 -52 0 -21
-9 -49 -19 -60 -21 -25 -5 -74 30 -74 53 0 23 75 91 113 102 39 12 121 5 158
-14z m352 13 c14 -11 18 -35 21 -138 5 -166 -3 -302 -20 -325 -19 -26 -83 -23
-106 6 -15 18 -18 42 -18 144 0 139 -3 155 -33 155 -32 0 -57 29 -57 66 0 38
2 39 90 76 73 30 99 33 123 16z m-1190 -797 c148 -1 148 -1 145 -23 -2 -15
-18 -31 -48 -47 -25 -13 -88 -51 -140 -85 -52 -35 -131 -82 -175 -106 -44 -24
-102 -58 -130 -75 -183 -117 -394 -235 -420 -235 -29 0 -178 84 -410 230 -49
31 -108 67 -130 80 -22 13 -83 51 -135 85 -52 33 -116 73 -142 88 -55 32 -78
53 -78 73 0 12 33 14 201 14 191 0 202 -1 232 -22 18 -12 34 -25 37 -28 3 -4
30 -23 60 -42 51 -33 141 -96 284 -196 33 -23 71 -42 85 -42 36 0 384 235 457
307 18 19 82 32 129 27 17 -1 97 -3 178 -3z"/>
<path d="M6485 10741 c-111 -18 -192 -124 -196 -260 -2 -58 32 -134 73 -165
34 -24 131 -33 181 -17 103 34 168 128 169 244 2 146 -84 221 -227 198z"/>
<path d="M10612 10723 c-22 -57 -35 -164 -23 -176 17 -17 163 -12 199 7 40 21
62 58 62 105 0 69 -41 91 -165 91 -59 0 -63 -2 -73 -27z"/>
<path d="M8777 8143 c-11 -18 -12 -232 -1 -242 7 -8 26 -8 59 -2 145 27 132
220 -16 246 -20 4 -39 3 -42 -2z"/>
<path d="M10137 8133 c-13 -12 -8 -208 5 -221 24 -24 75 -14 112 22 32 30 36
39 36 86 0 46 -4 56 -34 86 -27 27 -42 34 -73 34 -22 0 -43 -3 -46 -7z"/>
<path d="M11701 8114 c-40 -51 -22 -200 26 -218 40 -16 68 35 67 123 -1 107
-47 154 -93 95z"/>
</g>
</svg>
